<?xml version="1.0" encoding="utf-8"?>
<!-- Generator: Adobe Illustrator 16.0.0, SVG Export Plug-In . SVG Version: 6.00 Build 0)  -->
<!DOCTYPE svg PUBLIC "-//W3C//DTD SVG 1.1//EN" "http://www.w3.org/Graphics/SVG/1.1/DTD/svg11.dtd">
<svg version="1.1" id="Capa_1" xmlns="http://www.w3.org/2000/svg" xmlns:xlink="http://www.w3.org/1999/xlink" x="0px" y="0px"
	 width="512px" height="240px" viewBox="0 0 512 240" enable-background="new 0 0 512 240" xml:space="preserve">
<g>
	<g>
		<path fill="#050505" d="M0,189.623c0-3.413,0.585-6.338,1.756-8.78c1.169-2.442,2.76-4.449,4.767-6.021
			c2.007-1.571,4.366-2.726,7.075-3.462c2.709-0.737,5.603-1.104,8.681-1.104c4.95,0,8.595,0.652,10.938,1.956
			c2.341,1.305,3.512,3.53,3.512,6.675c0,1.338-0.285,2.543-0.853,3.611c-0.569,1.071-1.188,1.874-1.856,2.409
			c-1.272-0.334-2.593-0.618-3.964-0.854c-1.372-0.232-2.961-0.352-4.767-0.352c-2.877,0-5.118,0.486-6.724,1.456
			c-1.605,0.97-2.408,2.659-2.408,5.067v3.212h16.458c0.401,0.736,0.786,1.655,1.154,2.759c0.367,1.104,0.552,2.326,0.552,3.663
			c0,2.343-0.519,4.032-1.556,5.069c-1.038,1.037-2.425,1.555-4.165,1.555H17.06v31.812c-0.669,0.2-1.724,0.4-3.161,0.602
			c-1.44,0.201-2.928,0.301-4.466,0.301c-1.472,0-2.794-0.1-3.963-0.301c-1.172-0.201-2.158-0.602-2.961-1.205
			c-0.803-0.602-1.422-1.419-1.856-2.459C0.217,234.197,0,232.842,0,231.169V189.623z"/>
		<path fill="#050505" d="M59.209,238.295c-0.67,0.2-1.724,0.4-3.162,0.602c-1.439,0.201-2.927,0.301-4.465,0.301
			c-1.473,0-2.794-0.1-3.964-0.301c-1.17-0.201-2.157-0.602-2.959-1.205c-0.804-0.602-1.423-1.419-1.857-2.459
			c-0.437-1.035-0.652-2.391-0.652-4.063v-30.106c0-1.537,0.284-2.859,0.852-3.964c0.568-1.104,1.388-2.089,2.459-2.96
			c1.069-0.868,2.391-1.655,3.964-2.358c1.571-0.703,3.262-1.32,5.067-1.856c1.806-0.534,3.679-0.953,5.62-1.255
			c1.94-0.3,3.88-0.451,5.821-0.451c3.212,0,5.753,0.62,7.627,1.856c1.873,1.239,2.81,3.262,2.81,6.071
			c0,0.938-0.135,1.856-0.401,2.761c-0.268,0.902-0.603,1.723-1.004,2.458c-1.405,0-2.845,0.067-4.315,0.2
			c-1.472,0.135-2.91,0.337-4.315,0.603c-1.405,0.269-2.727,0.552-3.964,0.853c-1.238,0.302-2.293,0.653-3.161,1.054V238.295z"/>
		<path fill="#050505" d="M103.164,188.117c3.612,0,6.907,0.369,9.884,1.104c2.976,0.737,5.52,1.856,7.627,3.362
			c2.107,1.505,3.729,3.412,4.867,5.721c1.137,2.308,1.707,5.035,1.707,8.179v22.479c0,1.74-0.486,3.161-1.456,4.265
			c-0.971,1.105-2.125,2.059-3.462,2.861c-4.349,2.608-10.471,3.913-18.364,3.913c-3.547,0-6.741-0.336-9.583-1.004
			c-2.845-0.667-5.287-1.67-7.327-3.01c-2.041-1.338-3.612-3.043-4.716-5.118c-1.104-2.072-1.656-4.481-1.656-7.226
			c0-4.616,1.37-8.161,4.114-10.637c2.743-2.475,6.99-4.015,12.745-4.617l13.146-1.404v-0.702c0-1.939-0.853-3.328-2.559-4.166
			c-1.706-0.834-4.165-1.254-7.376-1.254c-2.543,0-5.018,0.268-7.426,0.803c-2.408,0.536-4.583,1.204-6.523,2.008
			c-0.87-0.603-1.605-1.521-2.208-2.76s-0.903-2.524-0.903-3.864c0-1.738,0.417-3.126,1.254-4.164
			c0.836-1.036,2.123-1.923,3.864-2.66c1.94-0.734,4.231-1.27,6.875-1.605C98.33,188.286,100.821,188.117,103.164,188.117z
			 M103.967,227.557c1.136,0,2.391-0.116,3.763-0.353c1.37-0.232,2.391-0.551,3.061-0.951v-8.029l-7.226,0.603
			c-1.874,0.135-3.412,0.536-4.616,1.204c-1.205,0.669-1.806,1.673-1.806,3.011c0,1.339,0.517,2.426,1.555,3.262
			C99.734,227.139,101.491,227.557,103.967,227.557z"/>
		<path fill="#050505" d="M162.271,188.117c2.743,0,5.435,0.386,8.078,1.154c2.643,0.771,4.934,1.923,6.875,3.462
			c2.007-1.337,4.265-2.44,6.774-3.311s5.535-1.306,9.083-1.306c2.542,0,5.033,0.336,7.476,1.004
			c2.441,0.67,4.616,1.724,6.523,3.161c1.907,1.439,3.428,3.347,4.566,5.72c1.137,2.376,1.706,5.27,1.706,8.681v31.612
			c-0.669,0.2-1.723,0.4-3.161,0.602c-1.44,0.201-2.928,0.301-4.466,0.301c-1.472,0-2.794-0.1-3.964-0.301
			c-1.171-0.201-2.158-0.602-2.96-1.205c-0.803-0.602-1.422-1.419-1.856-2.459c-0.436-1.035-0.652-2.391-0.652-4.063v-23.984
			c0-2.007-0.569-3.462-1.706-4.365c-1.138-0.902-2.676-1.354-4.616-1.354c-0.938,0-1.941,0.217-3.01,0.651
			c-1.071,0.437-1.874,0.888-2.409,1.355c0.065,0.268,0.1,0.519,0.1,0.752c0,0.236,0,0.452,0,0.652v33.419
			c-0.737,0.2-1.823,0.4-3.261,0.602c-1.439,0.201-2.895,0.301-4.365,0.301c-1.473,0-2.794-0.1-3.964-0.301
			c-1.171-0.201-2.157-0.602-2.96-1.205c-0.803-0.602-1.422-1.419-1.856-2.459c-0.437-1.035-0.653-2.391-0.653-4.063v-23.984
			c0-2.007-0.619-3.462-1.856-4.365c-1.239-0.902-2.727-1.354-4.466-1.354c-1.205,0-2.242,0.185-3.111,0.552
			c-0.871,0.368-1.606,0.719-2.208,1.054v35.225c-0.67,0.2-1.724,0.4-3.162,0.602c-1.439,0.201-2.928,0.301-4.466,0.301
			c-1.472,0-2.794-0.1-3.964-0.301c-1.171-0.201-2.157-0.602-2.96-1.205c-0.803-0.602-1.422-1.419-1.857-2.459
			c-0.436-1.035-0.652-2.391-0.652-4.063v-30.307c0-1.807,0.384-3.244,1.154-4.315c0.768-1.069,1.822-2.072,3.161-3.011
			c2.273-1.604,5.101-2.909,8.48-3.913C155.061,188.619,158.591,188.117,162.271,188.117z"/>
		<path fill="#050505" d="M250.782,240c-3.948,0-7.611-0.552-10.988-1.655c-3.379-1.104-6.322-2.76-8.832-4.968
			c-2.509-2.208-4.483-4.983-5.921-8.329c-1.439-3.345-2.157-7.259-2.157-11.741c0-4.416,0.718-8.212,2.157-11.39
			c1.438-3.178,3.327-5.787,5.67-7.829c2.341-2.039,5.018-3.545,8.028-4.516c3.011-0.969,6.087-1.455,9.233-1.455
			c3.545,0,6.774,0.536,9.684,1.605c2.911,1.072,5.419,2.544,7.527,4.416c2.106,1.874,3.746,4.115,4.917,6.724
			c1.169,2.609,1.756,5.454,1.756,8.53c0,2.274-0.637,4.014-1.907,5.218c-1.272,1.205-3.045,1.975-5.318,2.309l-24.788,3.713
			c0.735,2.208,2.241,3.864,4.516,4.968c2.274,1.104,4.883,1.656,7.828,1.656c2.743,0,5.334-0.352,7.777-1.055
			c2.441-0.701,4.432-1.521,5.971-2.458c1.069,0.67,1.973,1.605,2.71,2.81c0.735,1.205,1.103,2.476,1.103,3.813
			c0,3.011-1.404,5.253-4.215,6.724c-2.141,1.138-4.55,1.906-7.225,2.309C255.632,239.801,253.124,240,250.782,240z
			 M247.973,200.562c-1.606,0-2.995,0.269-4.165,0.803c-1.171,0.537-2.125,1.222-2.86,2.058c-0.737,0.837-1.29,1.772-1.656,2.81
			c-0.368,1.038-0.586,2.092-0.652,3.161l17.161-2.811c-0.201-1.338-0.938-2.674-2.208-4.014
			C252.32,201.23,250.447,200.562,247.973,200.562z"/>
		<path fill="#050505" d="M309.088,236.89c-0.938,0.802-2.208,1.455-3.814,1.957c-1.605,0.502-3.513,0.752-5.72,0.752
			c-2.744,0-5.118-0.386-7.125-1.154c-2.007-0.769-3.346-1.855-4.014-3.262c-0.737-1.604-1.59-4.146-2.559-7.626
			c-0.97-3.479-1.923-7.291-2.859-11.44c-0.938-4.147-1.824-8.362-2.66-12.645c-0.836-4.281-1.489-8.062-1.957-11.34
			c0.936-0.938,2.19-1.756,3.764-2.459c1.571-0.702,3.295-1.054,5.168-1.054c2.341,0,4.265,0.519,5.77,1.556
			c1.505,1.037,2.424,2.827,2.76,5.368c0.667,5.086,1.237,9.283,1.707,12.595c0.466,3.312,0.853,6.021,1.153,8.13
			c0.301,2.106,0.535,3.713,0.703,4.816c0.166,1.103,0.316,1.991,0.451,2.659h0.401c0.201-1.07,0.552-2.625,1.054-4.667
			c0.501-2.04,1.086-4.365,1.756-6.975c0.668-2.608,1.371-5.435,2.107-8.48c0.735-3.042,1.471-6.07,2.208-9.081
			c1.338-0.734,2.659-1.305,3.964-1.706c1.305-0.401,2.926-0.603,4.867-0.603c2.341,0,4.348,0.369,6.021,1.104
			c1.672,0.736,2.742,1.873,3.212,3.411c0.802,2.945,1.571,5.806,2.308,8.581c0.735,2.777,1.405,5.354,2.007,7.728
			c0.601,2.375,1.137,4.482,1.605,6.322c0.468,1.841,0.804,3.295,1.004,4.365h0.501c0.737-5.15,1.457-10.503,2.158-16.057
			c0.704-5.553,1.354-11.205,1.958-16.96c1.204-0.734,2.474-1.27,3.812-1.605c1.339-0.333,2.676-0.502,4.014-0.502
			c2.342,0,4.281,0.502,5.822,1.506c1.538,1.003,2.307,2.744,2.307,5.218c0,1.071-0.166,2.677-0.502,4.817
			c-0.335,2.142-0.769,4.55-1.304,7.226c-0.537,2.677-1.154,5.486-1.856,8.43c-0.704,2.945-1.405,5.787-2.108,8.53
			c-0.702,2.743-1.373,5.218-2.007,7.427c-0.635,2.206-1.188,3.912-1.654,5.117c-0.939,0.802-2.376,1.455-4.316,1.957
			c-1.94,0.502-4.014,0.752-6.221,0.752c-5.621,0-8.933-1.405-9.936-4.214c-0.4-1.205-0.902-2.727-1.505-4.566
			c-0.602-1.84-1.239-3.864-1.906-6.072c-0.67-2.207-1.305-4.499-1.907-6.874c-0.602-2.373-1.104-4.666-1.505-6.874
			c-0.469,2.343-1.038,4.768-1.707,7.276c-0.669,2.509-1.354,4.951-2.057,7.325c-0.703,2.376-1.355,4.55-1.958,6.522
			C309.891,234.096,309.421,235.685,309.088,236.89z"/>
		<path fill="#050505" d="M412.351,214.009c0,4.148-0.638,7.846-1.907,11.089c-1.271,3.246-3.06,5.972-5.369,8.18
			c-2.307,2.207-5.066,3.88-8.278,5.018c-3.212,1.137-6.792,1.705-10.738,1.705c-3.949,0-7.526-0.602-10.738-1.807
			c-3.211-1.204-5.971-2.925-8.279-5.167c-2.308-2.241-4.099-4.968-5.369-8.179c-1.271-3.213-1.906-6.824-1.906-10.839
			c0-3.946,0.635-7.526,1.906-10.737c1.271-3.212,3.062-5.938,5.369-8.18c2.309-2.24,5.068-3.964,8.279-5.168
			c3.212-1.205,6.789-1.807,10.738-1.807c3.946,0,7.526,0.619,10.738,1.856c3.212,1.238,5.972,2.978,8.278,5.219
			c2.31,2.242,4.099,4.968,5.369,8.179C411.713,206.582,412.351,210.129,412.351,214.009z M377.226,214.009
			c0,4.082,0.786,7.21,2.358,9.383c1.571,2.175,3.764,3.262,6.574,3.262s4.966-1.104,6.472-3.312
			c1.505-2.208,2.259-5.318,2.259-9.333c0-4.014-0.77-7.107-2.308-9.283c-1.541-2.173-3.714-3.261-6.523-3.261
			s-4.984,1.088-6.522,3.261C377.994,206.901,377.226,209.995,377.226,214.009z"/>
		<path fill="#050505" d="M438.943,238.295c-0.668,0.2-1.723,0.4-3.161,0.602s-2.926,0.301-4.465,0.301
			c-1.472,0-2.795-0.1-3.963-0.301c-1.173-0.201-2.159-0.602-2.962-1.205c-0.802-0.602-1.421-1.419-1.856-2.459
			c-0.436-1.035-0.652-2.391-0.652-4.063v-30.106c0-1.537,0.283-2.859,0.852-3.964c0.569-1.104,1.389-2.089,2.46-2.96
			c1.069-0.868,2.392-1.655,3.964-2.358c1.571-0.703,3.262-1.32,5.068-1.856c1.806-0.534,3.68-0.953,5.62-1.255
			c1.94-0.3,3.878-0.451,5.82-0.451c3.211,0,5.754,0.62,7.628,1.856c1.871,1.239,2.808,3.262,2.808,6.071
			c0,0.938-0.133,1.856-0.4,2.761c-0.268,0.902-0.604,1.723-1.003,2.458c-1.404,0-2.846,0.067-4.315,0.2
			c-1.473,0.135-2.911,0.337-4.316,0.603c-1.403,0.269-2.726,0.552-3.963,0.853c-1.238,0.302-2.293,0.653-3.162,1.054V238.295z"/>
		<path fill="#050505" d="M512,229.563c-0.336,3.145-1.254,5.554-2.76,7.227c-1.506,1.671-3.696,2.509-6.572,2.509
			c-2.142,0-4.05-0.52-5.721-1.558c-1.672-1.035-3.479-2.791-5.42-5.268l-9.934-12.443v18.265c-0.736,0.133-1.824,0.316-3.261,0.552
			c-1.44,0.233-2.896,0.351-4.367,0.351c-1.473,0-2.794-0.1-3.964-0.301c-1.171-0.201-2.157-0.602-2.959-1.205
			c-0.805-0.602-1.424-1.419-1.858-2.459c-0.435-1.035-0.65-2.391-0.65-4.063v-58.104c0.735-0.2,1.821-0.417,3.262-0.652
			c1.436-0.233,2.893-0.351,4.364-0.351c1.47,0,2.793,0.1,3.963,0.301c1.171,0.2,2.159,0.602,2.962,1.204
			c0.802,0.602,1.419,1.422,1.856,2.458c0.434,1.039,0.652,2.394,0.652,4.065v26.492l17.261-17.661c3.477,0,6.271,0.769,8.378,2.308
			c2.108,1.54,3.162,3.479,3.162,5.82c0,1.003-0.169,1.924-0.501,2.76c-0.336,0.838-0.854,1.69-1.557,2.559
			c-0.702,0.87-1.605,1.791-2.709,2.76c-1.104,0.971-2.394,2.092-3.862,3.362l-5.822,5.018L512,229.563z"/>
	</g>
</g>
<g>
	<path fill="#050505" d="M43.14,152.59c-1.811,0.493-4.646,0.987-8.504,1.48c-3.864,0.493-7.685,0.74-11.463,0.74
		c-3.782,0-7.11-0.29-9.984-0.863c-2.877-0.575-5.3-1.604-7.271-3.082c-1.973-1.479-3.451-3.531-4.438-6.164
		C0.493,142.075,0,138.624,0,134.349V18.242c0-3.451,0.943-6.121,2.834-8.011C4.722,8.342,7.311,6.821,10.6,5.669
		c5.585-1.972,11.956-3.409,19.105-4.314C36.853,0.454,44.041,0,51.274,0c22.679,0,40.016,4.849,52.014,14.544
		c11.995,9.699,17.996,22.845,17.996,39.442c0,8.054-1.275,15.326-3.821,21.816c-2.55,6.494-6.329,12.079-11.34,16.763
		c-5.015,4.684-11.339,8.3-18.981,10.846c-7.642,2.55-16.478,3.821-26.5,3.821H43.14V152.59z M55.958,73.46
		c6.902,0,12.202-1.603,15.9-4.807c3.698-3.204,5.547-8.093,5.547-14.667c0-6.244-1.934-11.051-5.793-14.421
		c-3.863-3.366-9.491-5.053-16.886-5.053c-2.631,0-4.807,0.042-6.533,0.124c-1.726,0.084-3.494,0.289-5.3,0.616V73.46H55.958z"/>
	<path fill="#050505" d="M259.822,96.386c0,8.875-1.521,16.972-4.56,24.282c-3.043,7.314-7.438,13.557-13.189,18.734
		c-5.754,5.178-12.737,9.162-20.953,11.955c-8.219,2.793-17.502,4.191-27.856,4.191s-19.64-1.398-27.855-4.191
		c-8.22-2.793-15.203-6.777-20.954-11.955c-5.754-5.178-10.149-11.42-13.188-18.734c-3.042-7.311-4.561-15.408-4.561-24.282V2.218
		c1.807-0.328,4.684-0.778,8.627-1.356C139.277,0.289,143.056,0,146.673,0c3.778,0,7.106,0.289,9.984,0.862
		c2.873,0.578,5.3,1.603,7.272,3.082c1.972,1.479,3.451,3.536,4.437,6.162c0.986,2.631,1.479,6.083,1.479,10.354v75.186
		c0,7.888,2.176,14.051,6.533,18.488c4.353,4.438,9.983,6.656,16.886,6.656c7.064,0,12.734-2.219,17.009-6.656
		c4.271-4.438,6.41-10.6,6.41-18.488V2.218c1.806-0.328,4.683-0.778,8.627-1.356C229.254,0.289,233.033,0,236.65,0
		c3.779,0,7.106,0.289,9.984,0.862c2.873,0.578,5.3,1.603,7.271,3.082c1.972,1.479,3.451,3.536,4.438,6.162
		c0.985,2.631,1.479,6.083,1.479,10.354V96.386z"/>
	<path fill="#050505" d="M264.996,19.721c0.82-2.299,1.972-4.599,3.451-6.902c1.479-2.3,3.328-4.395,5.547-6.287
		c2.218-1.887,4.807-3.451,7.765-4.684C284.716,0.616,288.002,0,291.618,0c4.765,0,8.956,1.194,12.573,3.574
		c3.613,2.384,7.31,6.451,11.092,12.202l19.229,29.334l28.349-41.906c1.312-0.655,3.161-1.271,5.547-1.85
		c2.38-0.573,4.721-0.862,7.025-0.862c7.557,0,13.473,1.81,17.748,5.423c4.271,3.617,6.409,8.054,6.409,13.312
		c0,4.603-1.193,8.712-3.574,12.325c-2.385,3.617-5.631,7.973-9.736,13.065l-25.392,31.061l40.182,57.437
		c-1.316,6.082-4.152,10.889-8.505,14.42c-4.356,3.534-10.229,5.301-17.625,5.301c-4.77,0-8.876-1.193-12.326-3.574
		c-3.451-2.381-6.987-6.448-10.6-12.202l-19.968-31.554l-31.061,46.837c-1.317,0.162-2.55,0.286-3.698,0.37
		c-1.152,0.081-2.304,0.123-3.451,0.123c-9.368,0-16.271-1.892-20.707-5.67c-4.438-3.778-6.656-8.462-6.656-14.051
		c0-4.765,1.024-8.913,3.081-12.448c2.053-3.533,4.969-7.681,8.752-12.45l25.884-33.279L264.996,19.721z"/>
	<path fill="#050505" d="M430.651,152.346c-7.068,0-12.657-2.055-16.763-6.164c-4.109-4.107-6.163-9.695-6.163-16.762V1.972
		c1.807-0.328,4.684-0.778,8.628-1.356c3.944-0.574,7.723-0.863,11.339-0.863c3.779,0,7.107,0.29,9.984,0.863
		c2.873,0.578,5.3,1.602,7.271,3.081c1.974,1.479,3.452,3.536,4.438,6.163c0.985,2.631,1.479,6.083,1.479,10.354v97.372h56.451
		c1.148,1.811,2.219,4.234,3.205,7.271c0.985,3.043,1.479,6.205,1.479,9.492c0,6.574-1.398,11.215-4.19,13.926
		c-2.797,2.713-6.493,4.07-11.094,4.07H430.651z"/>
</g>
</svg>
